<svg width="628" height="378" xmlns="http://www.w3.org/2000/svg" xmlns:xlink="http://www.w3.org/1999/xlink" overflow="hidden"><defs><clipPath id="clip0"><path d="M440 74 1068 74 1068 452 440 452Z" fill-rule="evenodd" clip-rule="evenodd"/></clipPath></defs><g clip-path="url(#clip0)" transform="translate(-440 -74)"><path d="M440.367 129.181 649.133 129.181 649.133 182.807 440.367 182.807Z" fill="#ED7D31" fill-rule="evenodd" fill-opacity="0.2"/><path d="M649.133 129.181 857.9 129.181 857.9 182.807 649.133 182.807Z" fill="#ED7D31" fill-rule="evenodd" fill-opacity="0.2"/><path d="M857.9 129.181 1066.67 129.181 1066.67 182.807 857.9 182.807Z" fill="#ED7D31" fill-rule="evenodd" fill-opacity="0.2"/><path d="M440.367 236.433 649.133 236.433 649.133 290.058 440.367 290.058Z" fill="#ED7D31" fill-rule="evenodd" fill-opacity="0.2"/><path d="M649.133 236.433 857.9 236.433 857.9 290.058 649.133 290.058Z" fill="#ED7D31" fill-rule="evenodd" fill-opacity="0.2"/><path d="M857.9 236.433 1066.67 236.433 1066.67 290.058 857.9 290.058Z" fill="#ED7D31" fill-rule="evenodd" fill-opacity="0.2"/><path d="M440.367 343.684 649.133 343.684 649.133 397.31 440.367 397.31Z" fill="#ED7D31" fill-rule="evenodd" fill-opacity="0.2"/><path d="M649.133 343.684 857.9 343.684 857.9 397.31 649.133 397.31Z" fill="#ED7D31" fill-rule="evenodd" fill-opacity="0.2"/><path d="M857.9 343.684 1066.67 343.684 1066.67 397.31 857.9 397.31Z" fill="#ED7D31" fill-rule="evenodd" fill-opacity="0.2"/><path d="M440.367 129.181 1066.67 129.181" stroke="#ED7D31" stroke-width="1.33333" stroke-linejoin="round" stroke-miterlimit="10" fill="none" fill-rule="evenodd"/><path d="M440.367 75.5554 1066.67 75.5554" stroke="#ED7D31" stroke-width="1.33333" stroke-linejoin="round" stroke-miterlimit="10" fill="none" fill-rule="evenodd"/><path d="M440.367 450.935 1066.67 450.935" stroke="#ED7D31" stroke-width="1.33333" stroke-linejoin="round" stroke-miterlimit="10" fill="none" fill-rule="evenodd"/></g></svg>